<?xml version="1.0" encoding="utf-8"?>
<!-- Generator: Adobe Illustrator 25.0.1, SVG Export Plug-In . SVG Version: 6.00 Build 0)  -->
<svg version="1.1" id="Layer_1" xmlns="http://www.w3.org/2000/svg" xmlns:xlink="http://www.w3.org/1999/xlink" x="0px" y="0px"
	 viewBox="0 0 197.5 34.9" style="enable-background:new 0 0 197.5 34.9;" xml:space="preserve">
<style type="text/css">
	.st0{fill:#FF671D;}
	.st1{fill:#FFFFFF;}
</style>
<g>
	<g>
		<path class="st0" d="M42.6,23.1c0,0.4-0.2,0.7-0.5,0.8c-0.1,0-0.5,0.1-1.1,0.1c-0.6,0-0.9-0.3-0.9-0.9v-8.8l-7.3,9
			c-0.4,0.5-0.9,0.7-1.6,0.7c-0.7,0-1.2-0.2-1.6-0.7l-7.4-9v8.8c0,0.6-0.3,0.9-0.9,0.9c-0.6,0-0.9,0-1.1-0.1
			c-0.4-0.1-0.5-0.4-0.5-0.8V11.7c0-0.8,0.5-1.3,1.4-1.3c0.6,0,1.1,0.2,1.5,0.6l8.7,10.3l8.5-10.3c0.4-0.4,0.8-0.6,1.4-0.6
			c0.9,0,1.4,0.5,1.4,1.4V23.1L42.6,23.1z"/>
		<path class="st0" d="M61.3,20.3c0,2.4-2.1,3.6-6.3,3.6h-3.9c-1.7,0-3-0.2-4-0.6c-1.5-0.6-2.3-1.6-2.3-3v-6.3
			c0-2.5,2.1-3.7,6.3-3.7H55c2,0,3.3,0.2,4.1,0.5c1.4,0.6,2.2,1.6,2.2,3.2V20.3z M58.9,20.2v-6.1c0-1.1-1.3-1.7-3.8-1.7h-3.9
			c-2.5,0-3.8,0.6-3.8,1.7v6.1c0,1.1,1.3,1.7,3.8,1.7h3.9C57.6,21.9,58.9,21.4,58.9,20.2z"/>
		<path class="st0" d="M80.5,20.3c0,1.3-0.6,2.3-1.8,2.9C77.7,23.7,76.5,24,75,24H64.5c-0.6,0-0.9-0.3-0.9-0.9V11.2
			c0-0.6,0.3-0.9,0.9-0.9h10.4c0.9,0,1.8,0.1,2.5,0.2c0.8,0.2,1.5,0.6,2.1,1.1c0.6,0.6,0.9,1.3,0.9,2.1c0,0.8,0,1.3-0.1,1.7
			c0,0.1-0.1,0.2-0.1,0.3c-0.1,0.2-0.2,0.3-0.3,0.6c-0.3,0.5-0.4,0.7-0.4,0.8c0,0,0.1,0.3,0.4,0.7c0.1,0.2,0.3,0.4,0.3,0.5
			c0.1,0.2,0.1,0.3,0.1,0.3c0,0.1,0.1,0.3,0.1,0.6C80.5,19.6,80.5,19.9,80.5,20.3z M78,19.7c0-0.9-1-1.4-3.1-1.4h-8.8v3.7h8.6
			c2,0,3.1-0.4,3.2-1.3c0,0,0-0.1,0-0.3C78,20.2,78,19.9,78,19.7z M78.1,14.9c0-0.2,0-0.6-0.1-1.1c-0.1-0.9-1.1-1.4-3.2-1.4h-8.6
			v3.8h8.7C77,16.2,78.1,15.8,78.1,14.9z"/>
		<path class="st0" d="M85.3,23.1c0,0.6-0.3,0.9-0.9,0.9c-0.3,0-0.5,0-0.6,0c-0.2,0-0.3,0-0.4,0c-0.4-0.1-0.5-0.4-0.5-0.8V11.2
			c0-0.4,0.2-0.7,0.5-0.8c0.1,0,0.2,0,0.4,0c0.2,0,0.4,0,0.7,0c0.6,0,0.9,0.3,0.9,0.9L85.3,23.1L85.3,23.1z"/>
		<path class="st0" d="M102.6,23.1c0,0.6-0.3,0.9-0.9,0.9h-7.9c-1.8,0-3.2-0.2-4.2-0.5c-1.6-0.5-2.4-1.6-2.4-3.1v-9.1
			c0-0.6,0.3-0.9,0.9-0.9c0.6,0,0.9,0,1.1,0.1c0.4,0.1,0.5,0.4,0.5,0.8v9.1c0,0.7,0.6,1.2,1.7,1.4c0.4,0.1,1.2,0.1,2.5,0.1h7.8
			C102.3,21.9,102.6,22.3,102.6,23.1z"/>
		<path class="st0" d="M141.5,23c0,0.3-0.1,0.5-0.3,0.7c-0.2,0.2-0.4,0.2-0.6,0.2c-0.3,0-0.5-0.1-0.6-0.2c-0.2-0.2-0.3-0.4-0.3-0.7
			c0-0.3,0.1-0.5,0.3-0.7c0.2-0.1,0.4-0.2,0.6-0.2c0.2,0,0.5,0.1,0.6,0.2C141.4,22.5,141.5,22.7,141.5,23z"/>
		<path class="st0" d="M151.6,17c0,0.3-0.2,0.5-0.5,0.5h-5c-1.2,0-1.8,0.2-1.8,0.7V22c0,0.6,0.7,0.9,2,0.9h4.7
			c0.3,0,0.5,0.2,0.5,0.6c0,0.4-0.2,0.6-0.5,0.6h-4.7c-0.6,0-1.1,0-1.4-0.1c-0.3-0.1-0.6-0.2-1-0.3c-0.4-0.2-0.6-0.4-0.8-0.6
			c-0.2-0.2-0.3-0.6-0.3-0.9v-3.8c0-0.5,0.2-0.9,0.7-1.2c0.4-0.3,0.8-0.5,1.3-0.6c0.1,0,0.3,0,0.5-0.1c0.2,0,0.4,0,0.7,0h5
			C151.4,16.3,151.6,16.6,151.6,17z"/>
		<path class="st0" d="M162.2,21.9c0,1.4-1.2,2-3.5,2h-2.2c-1,0-1.7-0.1-2.3-0.4c-0.8-0.3-1.3-0.9-1.3-1.7v-3.5
			c0-1.4,1.2-2.1,3.5-2.1h2.2c1.1,0,1.9,0.1,2.3,0.3c0.8,0.3,1.2,0.9,1.2,1.8V21.9L162.2,21.9z M160.8,21.9v-3.5c0-0.6-0.7-1-2.1-1
			h-2.2c-1.4,0-2.1,0.3-2.1,1v3.5c0,0.6,0.7,0.9,2.1,0.9h2.2C160.1,22.8,160.8,22.5,160.8,21.9z"/>
		<path class="st0" d="M176.4,23.5c0,0.2-0.1,0.4-0.3,0.5c-0.1,0-0.3,0-0.6,0c-0.3,0-0.5-0.2-0.5-0.5v-4.9l-4.1,5.1
			c-0.2,0.3-0.5,0.4-0.9,0.4c-0.4,0-0.7-0.1-0.9-0.4l-4.2-5.1v5c0,0.3-0.2,0.5-0.5,0.5c-0.3,0-0.5,0-0.6,0c-0.2-0.1-0.3-0.2-0.3-0.5
			v-6.4c0-0.5,0.3-0.7,0.8-0.7c0.3,0,0.6,0.1,0.8,0.4l4.9,5.8l4.8-5.8c0.2-0.2,0.5-0.4,0.8-0.4c0.5,0,0.8,0.3,0.8,0.8V23.5
			L176.4,23.5z"/>
	</g>
	<path class="st1" d="M138.3,20.1c0,2.6-2.5,3.9-7.4,3.9c-0.2,0-0.3,0-0.6,0c-0.2,0-0.5,0-0.8,0c-0.3,0-0.6,0-0.8,0
		c-0.2,0-0.4,0-0.5,0c-3.5,0-5.6-0.7-6.3-2c-0.2-0.5-0.4-1.1-0.4-1.9v-8.9c0-0.6,0.3-0.9,0.9-0.9c0.6,0,0.9,0,1.1,0.1
		c0.4,0.1,0.5,0.4,0.5,0.8V20c0,0.9,0.5,1.4,1.6,1.7c0.3,0.1,0.7,0.1,1.1,0.2c0.4,0,0.9,0.1,1.5,0.1h3.4c1.3,0,2.2-0.1,2.6-0.2
		c1-0.3,1.6-0.9,1.6-1.7v-8.7c0-0.4,0.2-0.7,0.5-0.8c0.1,0,0.5-0.1,1.1-0.1c0.6,0,0.9,0.3,0.9,0.9V20.1L138.3,20.1z"/>
	<path class="st1" d="M119.6,23.1c0,0.5-0.3,0.8-1,0.8c-0.7,0-1.2,0-1.3-0.1l-10.4-5.5v4.7c0,0.6-0.3,0.9-0.9,0.9
		c-0.6,0-0.9,0-1-0.1c-0.3-0.1-0.5-0.4-0.5-0.8V11.2c0-0.4,0.2-0.7,0.5-0.8c0.1,0,0.5-0.1,1-0.1c0.6,0,0.9,0.3,0.9,0.9v4.6l10-5.3
		c0.2-0.1,0.6-0.1,1.4-0.1c0.7,0,1,0.3,1,0.8c0,0.3-0.2,0.6-0.6,0.8l-9.6,5l9.9,5.2C119.4,22.5,119.6,22.8,119.6,23.1z"/>
</g>
</svg>
